<svg width="18" height="22" viewBox="0 0 18 22" fill="none" xmlns="http://www.w3.org/2000/svg">
<path d="M9 0C10.402 0 11.6708 0.602398 12.7461 1.47852C13.8203 2.35381 14.7534 3.54193 15.5176 4.83398C17.0358 7.40088 18 10.5751 18 13C18 17.9706 13.9706 22 9 22C4.02944 22 0 17.9706 0 13C0 10.5751 0.964216 7.40088 2.48242 4.83398C2.59853 4.63768 2.71994 4.44468 2.84375 4.25391C2.86215 4.26989 2.88061 4.28601 2.90039 4.30078L2.98535 4.35742L6.80859 6.65039L4.3584 8.7959C3.59272 9.46587 3.7018 10.6875 4.57422 11.2109L8.98535 13.8574C9.45888 14.1415 10.0732 13.9881 10.3574 13.5146C10.6238 13.0706 10.5057 12.5026 10.0996 12.1992L10.0146 12.1426L6.19043 9.84863L8.6416 7.7041C9.40728 7.03413 9.2982 5.81251 8.42578 5.28906L4.04199 2.65918C4.42284 2.22522 4.82667 1.82665 5.25391 1.47852C6.3292 0.602398 7.59804 0 9 0Z" fill="#FEFEFE"/>
</svg>
