<svg width="24" height="24" viewBox="0 0 24 24" fill="none" xmlns="http://www.w3.org/2000/svg">
<path d="M12.4307 1.82812C14.5335 1.82812 16.285 2.39458 17.4434 3.97656C18.54 5.4746 18.955 7.69827 18.9551 10.623C18.9551 12.242 19.3684 13.5406 19.9219 14.5352C20.2524 15.129 20.5399 15.6605 20.7178 16.1045C20.8726 16.4909 21.0757 17.1082 20.8271 17.708C20.5435 18.3917 19.8839 18.6122 19.4463 18.7012C18.9746 18.797 18.3689 18.8193 17.6797 18.8193H16.1504C16.0337 19.5 15.7797 20.2763 15.3027 20.9736C14.5597 22.0598 13.3129 22.9012 11.4531 22.9014C9.5932 22.9013 8.34663 22.0598 7.60352 20.9736C7.12648 20.2763 6.87159 19.5 6.75488 18.8193H5.26367C4.57448 18.8193 3.96874 18.797 3.49707 18.7012C3.05943 18.6121 2.39977 18.3917 2.11621 17.708C1.86772 17.1083 2.07081 16.4909 2.22559 16.1045C2.40345 15.6606 2.69099 15.129 3.02148 14.5352C3.57496 13.5406 3.98824 12.2421 3.98828 10.623C3.98831 7.69836 4.40343 5.4746 5.5 3.97656C6.65826 2.39454 8.40992 1.82818 10.5127 1.82812H12.4307ZM8.79785 18.8193C8.88933 19.1644 9.03563 19.5256 9.25391 19.8447C9.64493 20.4162 10.2893 20.9013 11.4531 20.9014C12.6168 20.9012 13.2613 20.4162 13.6523 19.8447C13.8705 19.5257 14.016 19.1644 14.1074 18.8193H8.79785ZM10.5127 3.82812C8.76628 3.82818 7.7549 4.28185 7.11328 5.1582C6.41046 6.11869 5.98832 7.79253 5.98828 10.623C5.98824 12.5963 5.48085 14.228 4.76855 15.5078C4.45468 16.0718 4.242 16.4749 4.11426 16.7744C4.37297 16.8039 4.74238 16.8193 5.26367 16.8193H17.6797C18.2009 16.8193 18.5704 16.8038 18.8291 16.7744C18.7013 16.4749 18.4887 16.0718 18.1748 15.5078C17.4625 14.228 16.9551 12.5962 16.9551 10.623C16.955 7.79238 16.533 6.11866 15.8301 5.1582C15.1884 4.28189 14.1772 3.82812 12.4307 3.82812H10.5127Z" fill="#0D0D0D"/>
</svg>
