<svg width="21" height="22" viewBox="0 0 21 22" fill="none" xmlns="http://www.w3.org/2000/svg">
<path d="M11.3965 0.171875C13.3999 0.171924 15.0684 0.749504 16.1611 2.33496C17.186 3.82192 17.5732 6.02606 17.5732 8.93164C17.5733 11.6815 18.1082 13.2611 18.6621 14.1191C19.2166 14.978 19.7628 15.0938 19.9023 15.0938C20.4546 15.0938 20.9023 15.5415 20.9023 16.0938C20.9023 16.646 20.4546 17.0938 19.9023 17.0938H15.1328C15.0084 17.7491 14.7551 18.4828 14.3018 19.1455C13.5586 20.2317 12.3122 21.0732 10.4521 21.0732C8.5921 21.0732 7.34564 20.2318 6.60254 19.1455C6.14925 18.4828 5.89585 17.7491 5.77148 17.0938H1C0.447715 17.0938 0 16.646 0 16.0938C7.11191e-05 15.5415 0.447759 15.0938 1 15.0938C1.13959 15.0938 1.6857 14.978 2.24023 14.1191C2.79415 13.2611 3.32906 11.6815 3.3291 8.93164C3.3291 6.02606 3.71637 3.82192 4.74121 2.33496C5.83399 0.749504 7.50246 0.171924 9.50586 0.171875H11.3965ZM7.82617 17.0938C7.91862 17.4071 8.0562 17.729 8.25293 18.0166C8.64394 18.5882 9.28821 19.0732 10.4521 19.0732C11.6161 19.0732 12.2603 18.5881 12.6514 18.0166C12.8481 17.729 12.9857 17.4071 13.0781 17.0938H7.82617ZM9.50586 2.17188C7.90236 2.17192 6.98248 2.60913 6.38867 3.4707C5.72689 4.43097 5.3291 6.10727 5.3291 8.93164C5.32906 11.8287 4.78417 13.8004 3.98828 15.0938H16.9141C16.1182 13.8004 15.5733 11.8287 15.5732 8.93164C15.5732 6.10727 15.1755 4.43097 14.5137 3.4707C13.9199 2.60913 13 2.17192 11.3965 2.17188H9.50586Z" fill="#0D0D0D"/>
</svg>
