<svg width="21" height="22" viewBox="0 0 21 22" fill="none" xmlns="http://www.w3.org/2000/svg">
<path d="M7 1H5C2.79086 1 1 2.79086 1 5V17C1 19.2091 2.79086 21 5 21H7" stroke="black" stroke-width="2" stroke-linecap="round"/>
<path d="M7 10.001C6.44772 10.001 6 10.4487 6 11.001C6 11.5533 6.44772 12.001 7 12.001L7 10.001ZM20.7071 11.7081C21.0976 11.3176 21.0976 10.6844 20.7071 10.2939L14.3431 3.92991C13.9526 3.53938 13.3195 3.53938 12.9289 3.92991C12.5384 4.32043 12.5384 4.9536 12.9289 5.34412L18.5858 11.001L12.9289 16.6578C12.5384 17.0484 12.5384 17.6815 12.9289 18.072C13.3195 18.4626 13.9526 18.4626 14.3431 18.072L20.7071 11.7081ZM7 11.001L7 12.001L20 12.001L20 11.001L20 10.001L7 10.001L7 11.001Z" fill="#0D0D0D"/>
</svg>
