<svg width="18" height="18" viewBox="0 0 18 18" fill="none" xmlns="http://www.w3.org/2000/svg">
<path d="M5.53749 4.57048L8.52624 1.86742C8.60241 1.79853 8.71838 1.79853 8.79455 1.86742L11.7834 4.57048C11.9191 4.69327 11.8323 4.91882 11.6492 4.91882H5.67165C5.48859 4.91882 5.40172 4.69327 5.53749 4.57048Z" stroke="#0D0D0D" stroke-width="1.5" stroke-linecap="round"/>
<path d="M10.9871 4.97363L13.6273 7.86096C13.7089 7.95014 13.6947 8.08907 13.5865 8.14289C11.8423 9.01046 5.33562 9.1858 3.71654 8.15558C3.62261 8.09581 3.61754 7.96809 3.69312 7.88636L6.38649 4.97363" stroke="#0D0D0D" stroke-width="1.5" stroke-linecap="round"/>
<path d="M13.0477 8.38086L15.4839 11.1955C15.5614 11.2852 15.5454 11.4219 15.4461 11.4867C11.7838 13.8798 4.80359 13.5722 1.80575 11.4914C1.7088 11.4241 1.69817 11.288 1.77821 11.2013L4.23141 8.54317" stroke="#0D0D0D" stroke-width="1.5" stroke-linecap="round"/>
<path d="M8.65039 15.7457V13.1895" stroke="#0D0D0D" stroke-width="1.5" stroke-linecap="round"/>
<path d="M13.6936 15.7461L3.60742 15.7461" stroke="#0D0D0D" stroke-width="1.5" stroke-linecap="round"/>
</svg>
