<svg width="18" height="18" viewBox="0 0 18 18" fill="none" xmlns="http://www.w3.org/2000/svg">
<path d="M6.94727 3.19727C7.36728 2.3116 8.5851 2.26727 9.09082 3.05078L9.18262 3.21875L11.3604 8.03906L11.7363 8.87109L12.4795 8.34082C12.6247 8.23726 12.7932 8.16505 12.9727 8.13184C13.1521 8.09868 13.3373 8.10533 13.5137 8.15039C13.6899 8.19546 13.8522 8.27808 13.9893 8.39062C14.0921 8.47511 14.1786 8.57521 14.2461 8.68555L14.3076 8.79883L14.3115 8.80664L16.4414 13.2402C16.8257 14.0409 16.2522 14.9961 15.3311 14.9961H3.29297C2.43291 14.996 1.87478 14.1613 2.12109 13.3975L2.18066 13.2461L6.94727 3.19824V3.19727Z" stroke="#0D0D0D" stroke-width="1.5"/>
</svg>
