<svg width="41" height="35" viewBox="0 0 41 35" fill="none" xmlns="http://www.w3.org/2000/svg">
<path d="M10.3964 7.257C8.10512 -3.46021 2.43739 -0.0953465 1.52344 3.42141C1.5062 3.48776 1.45751 3.54001 1.39604 3.57036C0.831466 3.84917 0.396801 4.75179 0.142134 5.49102C0.0770276 5.68001 0.310128 5.82191 0.472646 5.70553C1.89995 4.68346 2.80361 5.5728 3.14195 6.29642C3.17452 6.3661 3.15813 6.44641 3.11159 6.50765C2.52805 7.27563 2.06558 9.36691 1.90184 10.3571C-0.758956 21.133 6.19968 26.1413 10.0809 27.3283C10.1288 27.3429 10.1677 27.3739 10.1941 27.4164C10.6739 28.187 11.4317 28.9229 11.9764 29.3841C12.1184 29.5043 12.1036 29.914 12.0637 30.0958C12.0006 30.3839 12.0443 30.78 12.1028 31.0656C12.1165 31.1322 12.0981 31.2016 12.0512 31.2508L9.66231 33.754C9.62765 33.7903 9.57685 33.8125 9.52675 33.8158C0.79036 34.3829 6.48192 34.6253 10.4337 34.6756C13.5662 34.9279 12.5056 34.4327 11.3586 34.081C11.2114 34.0358 11.1638 33.849 11.2739 33.7414L13.8624 31.2124C13.8895 31.1859 13.9081 31.1522 13.9186 31.1158C14.2168 30.0827 15.912 29.3641 16.7586 29.1237C16.7743 29.1193 16.79 29.1169 16.8063 29.1168C17.3808 29.1133 17.7816 29.5442 17.9385 29.8032C17.9577 29.835 17.9853 29.8624 18.0008 29.8962C18.1599 30.2436 17.8823 32.3279 17.6946 33.5086C17.6804 33.5978 17.6022 33.6661 17.5123 33.6755C10.1601 34.4439 14.1433 34.8783 17.0779 35C18.3417 35 19.2388 34.0472 19.5837 33.4921C19.6192 33.435 19.683 33.3962 19.7501 33.3911C24.3983 33.0377 21.4345 32.8906 19.2932 32.8598C19.2483 32.8592 19.2043 32.8445 19.1743 32.8111C18.7335 32.3215 18.9815 30.5857 19.192 29.6325C19.2108 29.5475 19.2834 29.4866 19.3699 29.4765C20.8347 29.3062 22.8097 28.2514 23.6925 27.696C23.7301 27.6724 23.7768 27.6623 23.8211 27.6664C51.5728 30.2273 39.4823 24.8372 29.9026 21.8C29.8607 21.7867 29.8252 21.7606 29.7999 21.7248C25.423 15.5354 15.8083 10.4752 11.4434 8.67282C11.3843 8.64838 11.3441 8.59814 11.3196 8.539C11.1771 8.19438 10.711 7.6411 10.4464 7.35444C10.4216 7.32755 10.4041 7.29279 10.3964 7.257Z" fill="#979797"/>
</svg>
