<svg width="65" height="62" viewBox="0 0 65 62" fill="none" xmlns="http://www.w3.org/2000/svg">
<path d="M20.2002 0.933465C18.8802 0.273448 16.24 -0.386593 13.3799 0.273309C11.0918 0.801345 9.19913 2.98681 8.53909 4.01354C7.87903 4.3069 6.2953 4.98183 5.23928 5.33386C3.91919 5.77389 1.71838 5.99372 1.27835 6.21374C0.838722 6.43376 0.838703 6.87351 1.27835 7.31335C1.71838 7.75338 2.81919 8.41364 3.69925 8.63366C4.57938 8.85351 6.11913 8.63366 6.99905 8.63366C7.7031 8.63366 8.75922 8.70734 9.19925 8.74401C9.05248 9.22081 8.58286 10.3059 7.87893 10.8339L6.2012 12.0985C5.62367 12.5385 5.12859 12.924 5.01858 13.0341C4.79865 13.2541 4.57897 13.694 4.79885 13.9139C5.01884 14.1339 5.8988 13.9142 6.33889 13.6942C6.77892 13.4742 8.31919 12.3738 9.19925 11.7137C9.90335 11.1857 11.8397 10.1733 12.7198 9.73327C12.9399 9.80684 13.4535 10.3683 14.4795 10.8339C15.6825 11.3797 17.2836 11.3799 17.7793 12.1542C18.2751 12.9284 17.9963 14.166 17.7793 14.5741C17.6045 14.9029 16.4588 16.3345 15.1387 18.0946C14.1454 19.2094 12.031 21.6501 11.5186 22.495C11.006 23.3404 9.75882 26.0736 9.19925 27.3348C8.53984 28.4349 6.99905 33.9353 6.99905 35.4755C6.99905 37.0156 7.87942 42.9561 12.7198 48.0165C16.5921 52.0646 24.3064 54.5438 27.6797 55.2772V57.9169C27.4597 58.0635 26.8874 58.401 26.3594 58.577C25.6992 58.7969 24.159 58.7967 23.4991 58.7967C22.9712 58.7968 22.5461 58.9441 22.3994 59.0174C22.3261 59.2376 22.2235 59.7214 22.3994 59.8973C22.6198 60.1172 24.3798 59.8973 25.2598 59.8973H27.0196C26.653 60.1907 26.0083 60.8207 26.3594 60.9969C26.7994 61.217 27.9001 60.9969 29.6602 60.9969C31.4201 60.9969 33.8397 60.9971 34.5 60.7772C35.1601 60.5572 35.5999 60.337 35.3799 59.4569C35.16 58.5772 35.1604 58.5766 34.9405 57.2567L34.8867 56.9032C34.7895 56.1745 34.8763 56.0929 34.9405 56.1571C38.4607 56.0104 46.1168 55.5408 48.5811 54.8368C51.6613 53.9567 54.522 51.7563 55.6221 49.1161C56.722 46.476 56.9421 43.8359 57.1621 42.9559C57.3823 42.0757 59.5816 39.2154 60.6817 37.8954C61.7812 36.5759 63.9804 34.5974 64.2022 34.3758C64.4222 34.1558 64.4222 33.7157 64.2022 33.7157C63.9823 33.7157 63.9819 33.7155 63.542 33.9354C63.1017 34.1554 61.5625 34.3751 61.5625 34.1551C61.5628 33.9354 62.0021 33.9347 62.8819 32.6151C63.7619 31.295 63.3223 28.4347 63.3223 28.2147C63.3223 27.9947 63.3222 27.555 63.1026 27.5546C62.8826 27.5546 62.6624 27.9954 62.4424 28.4354C62.2221 28.8756 61.123 29.975 61.3428 29.3153C61.5628 28.6553 61.3428 27.5548 61.3428 27.3348C61.3428 27.1147 61.1224 26.2345 60.9024 26.0145C60.6824 25.7948 60.4629 26.235 60.4629 26.4549C60.463 26.6751 60.6834 27.3353 60.0235 28.6551C59.3634 29.9752 56.5026 31.7352 56.0625 31.7352C55.6222 31.7351 54.3025 31.5147 52.543 31.2948C50.7829 31.0748 44.4016 28.2149 39.7813 27.3348C35.1615 26.4549 30.1018 26.6751 27.9014 26.2352C26.1413 25.8832 24.6736 24.6217 24.1602 24.035C24.1602 23.6684 24.205 22.8472 24.3809 22.495C24.6009 22.055 26.3603 18.9751 27.0205 18.0946C27.6805 17.2146 28.3405 16.3343 28.5606 14.3544C28.7806 12.3742 28.1209 9.95343 26.8008 7.31335C25.4808 4.6735 21.5206 1.59386 20.2002 0.933465ZM32.2998 55.9364C32.2265 56.0097 32.2998 56.2446 32.2998 56.5965C32.2998 57.0366 32.5196 57.2568 32.5196 57.9169C32.5195 58.5769 32.2994 58.5767 31.8594 58.7967C31.581 58.9359 29.8792 59.4565 29.6592 59.0165C29.4395 58.5769 29.659 58.5765 29.8789 57.9169C30.0549 57.3888 29.9523 56.23 29.8789 55.7167L32.2998 55.9364Z" fill="#979797"/>
</svg>
