<svg width="25" height="25" viewBox="0 0 25 25" fill="none" xmlns="http://www.w3.org/2000/svg">
<path d="M12.7949 12.4014C12.1319 12.4014 11.496 12.138 11.0272 11.6691C10.5583 11.2003 10.2949 10.5644 10.2949 9.90137C10.2949 9.23833 10.5583 8.60244 11.0272 8.1336C11.496 7.66476 12.1319 7.40137 12.7949 7.40137C13.458 7.40137 14.0938 7.66476 14.5627 8.1336C15.0315 8.60244 15.2949 9.23833 15.2949 9.90137C15.2949 10.2297 15.2303 10.5548 15.1046 10.8581C14.979 11.1614 14.7948 11.437 14.5627 11.6691C14.3305 11.9013 14.0549 12.0854 13.7516 12.2111C13.4483 12.3367 13.1232 12.4014 12.7949 12.4014ZM12.7949 2.90137C10.9384 2.90137 9.15793 3.63886 7.84517 4.95162C6.53242 6.26437 5.79492 8.04485 5.79492 9.90137C5.79492 13.6331 9.33161 18.6279 11.3772 21.2048C12.1138 22.1327 13.476 22.1327 14.2126 21.2048C16.2582 18.6279 19.7949 13.6331 19.7949 9.90137C19.7949 8.04485 19.0574 6.26437 17.7447 4.95162C16.4319 3.63886 14.6514 2.90137 12.7949 2.90137Z" fill="#DAE0DE"/>
</svg>
