<svg width="20" height="18" viewBox="0 0 20 18" fill="none" xmlns="http://www.w3.org/2000/svg">
<path d="M4.5 7.5L8.5 11.5L18.5 1.5" stroke="#0D0D0D" stroke-width="2" stroke-linecap="round"/>
<path d="M9 0C11.0095 0 12.8645 0.659389 14.3623 1.77246L12.9287 3.20605C11.8085 2.44502 10.4563 2 9 2C5.13401 2 2 5.13401 2 9C2 12.866 5.13401 16 9 16C12.866 16 16 12.866 16 9C16 8.5217 15.9508 8.05486 15.8594 7.60352L17.4805 5.98242C17.8162 6.92583 18 7.94138 18 9C18 13.9706 13.9706 18 9 18C4.02944 18 0 13.9706 0 9C0 4.02944 4.02944 0 9 0ZM15.8252 3.1377C16.0845 3.43933 16.3249 3.75739 16.543 4.0918L15.0879 5.54688C14.8888 5.19663 14.6626 4.86387 14.4082 4.55469L15.8252 3.1377Z" fill="#0D0D0D"/>
</svg>
