<svg width="21" height="22" viewBox="0 0 21 22" fill="none" xmlns="http://www.w3.org/2000/svg">
<path d="M16.5449 1.42871C18.2305 1.42871 19.6182 2.81559 19.6182 4.55176C19.618 6.28778 18.2304 7.67383 16.5449 7.67383C14.8597 7.67357 13.4728 6.28761 13.4727 4.55176C13.4727 2.81575 14.8596 1.42897 16.5449 1.42871Z" stroke="#91BFFF" stroke-width="2"/>
<path d="M4.68945 8.35938C6.37502 8.35938 7.7627 9.74625 7.7627 11.4824C7.76252 13.2184 6.37491 14.6045 4.68945 14.6045C3.00421 14.6042 1.61736 13.2183 1.61719 11.4824C1.61719 9.74642 3.0041 8.35964 4.68945 8.35938Z" stroke="#91BFFF" stroke-width="2"/>
<path d="M16.5449 14.3262C18.2305 14.3262 19.6182 15.713 19.6182 17.4492C19.618 19.1852 18.2304 20.5713 16.5449 20.5713C14.8597 20.571 13.4728 19.1851 13.4727 17.4492C13.4727 15.7132 14.8596 14.3264 16.5449 14.3262Z" stroke="#91BFFF" stroke-width="2"/>
<path d="M7.36133 9.66895L13.6484 6.27441" stroke="#91BFFF" stroke-width="2"/>
<path d="M7.36133 13.3262L13.6484 16.3154" stroke="#91BFFF" stroke-width="2"/>
</svg>
