<svg width="16" height="22" viewBox="0 0 16 22" fill="none" xmlns="http://www.w3.org/2000/svg">
<mask id="path-1-inside-1_2053_11821" fill="white">
<path d="M12.4336 0.000976562C14.0902 0.00112224 15.4333 1.34444 15.4336 3.00098V21.094C15.4336 21.5955 15.0271 22.002 14.5257 22.002C14.2457 22.002 13.9814 21.8728 13.8094 21.652L9.11697 15.6276C8.51642 14.8567 7.35076 14.8567 6.75022 15.6277L2.05778 21.652C1.88575 21.8728 1.62146 22.002 1.34151 22.002C0.840081 22.002 0.433594 21.5955 0.433594 21.094V3.00195C0.433594 1.3451 1.77674 0.000976612 3.43359 0.000976562H12.4336Z"/>
</mask>
<path d="M12.4336 0.000976562C14.0902 0.00112224 15.4333 1.34444 15.4336 3.00098V21.094C15.4336 21.5955 15.0271 22.002 14.5257 22.002C14.2457 22.002 13.9814 21.8728 13.8094 21.652L9.11697 15.6276C8.51642 14.8567 7.35076 14.8567 6.75022 15.6277L2.05778 21.652C1.88575 21.8728 1.62146 22.002 1.34151 22.002C0.840081 22.002 0.433594 21.5955 0.433594 21.094V3.00195C0.433594 1.3451 1.77674 0.000976612 3.43359 0.000976562H12.4336Z" fill="#51BEA6"/>
<path d="M12.4336 0.000976562L12.4337 -1.49902H12.4336V0.000976562ZM15.4336 3.00098H16.9336V3.00074L15.4336 3.00098ZM3.43359 0.000976562V-1.49902V0.000976562ZM2.05778 21.652L3.24115 22.5737L2.05778 21.652ZM9.11697 15.6276L7.93359 16.5494L9.11697 15.6276ZM13.8094 21.652L12.626 22.5737L13.8094 21.652ZM12.4336 0.000976562L12.4335 1.50098C13.2616 1.50105 13.9335 2.17281 13.9336 3.00122L15.4336 3.00098L16.9336 3.00074C16.9332 0.516064 14.9187 -1.4988 12.4337 -1.49902L12.4336 0.000976562ZM15.4336 3.00098H13.9336V21.094H15.4336H16.9336V3.00098H15.4336ZM13.8094 21.652L14.9928 20.7302L10.3003 14.7059L9.11697 15.6276L7.93359 16.5494L12.626 22.5737L13.8094 21.652ZM6.75022 15.6277L5.56685 14.7059L0.874404 20.7302L2.05778 21.652L3.24115 22.5737L7.93359 16.5494L6.75022 15.6277ZM0.433594 21.094H1.93359V3.00195H0.433594H-1.06641V21.094H0.433594ZM0.433594 3.00195H1.93359C1.93359 2.17289 2.6058 1.50098 3.43359 1.50098V0.000976562V-1.49902C0.947677 -1.49902 -1.06641 0.517308 -1.06641 3.00195H0.433594ZM3.43359 0.000976562V1.50098H12.4336V0.000976562V-1.49902H3.43359V0.000976562ZM1.34151 22.002V20.502C1.66851 20.502 1.93359 20.767 1.93359 21.094H0.433594H-1.06641C-1.06641 22.4239 0.0116543 23.502 1.34151 23.502V22.002ZM2.05778 21.652L0.874404 20.7302C0.98659 20.5862 1.15895 20.502 1.34151 20.502V22.002V23.502C2.08397 23.502 2.78491 23.1594 3.24115 22.5737L2.05778 21.652ZM9.11697 15.6276L10.3003 14.7059C9.09925 13.1639 6.76793 13.1639 5.56685 14.7059L6.75022 15.6277L7.93359 16.5494L7.93359 16.5494L9.11697 15.6276ZM14.5257 22.002V20.502C14.7082 20.502 14.8806 20.5862 14.9928 20.7302L13.8094 21.652L12.626 22.5737C13.0823 23.1594 13.7832 23.502 14.5257 23.502V22.002ZM15.4336 21.094H13.9336C13.9336 20.767 14.1987 20.502 14.5257 20.502V22.002V23.502C15.8555 23.502 16.9336 22.4239 16.9336 21.094H15.4336Z" fill="#51BEA6" mask="url(#path-1-inside-1_2053_11821)"/>
</svg>
