<svg width="24" height="25" viewBox="0 0 24 25" fill="none" xmlns="http://www.w3.org/2000/svg">
<path d="M10 4.41036C10 4.13033 10 3.99231 10.016 3.8763C10.0669 3.50968 10.2361 3.16969 10.4978 2.90796C10.7595 2.64624 11.0994 2.47707 11.466 2.42616C11.58 2.41016 11.72 2.41016 12 2.41016C12.28 2.41016 12.418 2.41016 12.534 2.42616C12.9006 2.47707 13.2405 2.64624 13.5022 2.90796C13.7639 3.16969 13.9331 3.50968 13.984 3.8763C14 3.99031 14 4.13033 14 4.41036C14 4.69038 14 4.8284 13.984 4.94441C13.9331 5.31103 13.7639 5.65102 13.5022 5.91275C13.2405 6.17448 12.9006 6.34364 12.534 6.39455C12.42 6.41056 12.28 6.41056 12 6.41056C11.72 6.41056 11.582 6.41056 11.466 6.39455C11.0994 6.34364 10.7595 6.17448 10.4978 5.91275C10.2361 5.65102 10.0669 5.31103 10.016 4.94441C10 4.8304 10 4.69038 10 4.41036ZM10 12.4112C10 12.1311 10 11.9931 10.016 11.8771C10.0669 11.5105 10.2361 11.1705 10.4978 10.9088C10.7595 10.647 11.0994 10.4779 11.466 10.427C11.58 10.411 11.72 10.411 12 10.411C12.28 10.411 12.418 10.411 12.534 10.427C12.9006 10.4779 13.2405 10.647 13.5022 10.9088C13.7639 11.1705 13.9331 11.5105 13.984 11.8771C14 11.9911 14 12.1311 14 12.4112C14 12.6912 14 12.8292 13.984 12.9452C13.9331 13.3118 13.7639 13.6518 13.5022 13.9135C13.2405 14.1753 12.9006 14.3444 12.534 14.3954C12.42 14.4114 12.28 14.4114 12 14.4114C11.72 14.4114 11.582 14.4114 11.466 14.3954C11.0994 14.3444 10.7595 14.1753 10.4978 13.9135C10.2361 13.6518 10.0669 13.3118 10.016 12.9452C10 12.8312 10 12.6912 10 12.4112ZM10 20.412C10 20.1339 10 19.9939 10.016 19.8779C10.0672 19.5119 10.2362 19.1726 10.4975 18.9113C10.7588 18.65 11.0981 18.481 11.464 18.4298C11.582 18.4138 11.72 18.4138 11.998 18.4138C12.276 18.4138 12.418 18.4138 12.532 18.4298C12.8979 18.481 13.2372 18.65 13.4985 18.9113C13.7598 19.1726 13.9288 19.5119 13.98 19.8779C13.996 19.9939 13.996 20.1339 13.996 20.412C13.996 20.69 13.996 20.83 13.98 20.946C13.9288 21.312 13.7598 21.6513 13.4985 21.9126C13.2372 22.1739 12.8979 22.3429 12.532 22.3942C12.416 22.4102 12.276 22.4102 11.998 22.4102C11.72 22.4102 11.58 22.4102 11.464 22.3942C11.0981 22.3429 10.7588 22.1739 10.4975 21.9126C10.2362 21.6513 10.0672 21.312 10.016 20.946C10 20.83 10 20.69 10 20.412Z" fill="black"/>
</svg>
