<svg width="18" height="18" viewBox="0 0 18 18" fill="none" xmlns="http://www.w3.org/2000/svg">
<path d="M17.2218 2.24572C17.2218 1.83153 16.886 1.49576 16.4718 1.49576L9.72139 1.49576C9.30716 1.49576 8.97135 1.83153 8.97135 2.24572C8.97135 2.65991 9.30716 2.99568 9.72139 2.99568L15.7217 2.99568L15.7217 8.99534C15.7217 9.40953 16.0575 9.7453 16.4718 9.7453C16.886 9.7453 17.2218 9.40953 17.2218 8.99534L17.2218 2.24572ZM10.252 8.46484L10.7823 8.99514L17.0021 2.77602L16.4718 2.24572L15.9414 1.71542L9.72159 7.93454L10.252 8.46484Z" fill="#0D0D0D"/>
<path d="M1.72155 16.2465C1.72155 16.6607 2.05735 16.9964 2.47159 16.9964L9.22197 16.9964C9.6362 16.9964 9.97201 16.6607 9.97201 16.2465C9.97201 15.8323 9.6362 15.4965 9.22197 15.4965H3.22163V9.49684C3.22163 9.08265 2.88583 8.74688 2.47159 8.74688C2.05735 8.74688 1.72155 9.08265 1.72155 9.49684L1.72155 16.2465ZM8.69141 10.0273L8.16105 9.49704L1.94123 15.7162L2.47159 16.2465L3.00195 16.7768L9.22177 10.5576L8.69141 10.0273Z" fill="#0D0D0D"/>
</svg>
