<svg width="21" height="22" viewBox="0 0 21 22" fill="none" xmlns="http://www.w3.org/2000/svg">
<path d="M14 1H16C18.2091 1 20 2.79086 20 5V17C20 19.2091 18.2091 21 16 21H14" stroke="#FEFEFE" stroke-width="2" stroke-linecap="round"/>
<path d="M1 10.001C0.447715 10.001 -4.82822e-08 10.4487 0 11.001C4.82822e-08 11.5533 0.447715 12.001 1 12.001L1 10.001ZM14.7071 11.7081C15.0976 11.3176 15.0976 10.6844 14.7071 10.2939L8.34315 3.92991C7.95262 3.53938 7.31946 3.53938 6.92893 3.92991C6.53841 4.32043 6.53841 4.9536 6.92893 5.34412L12.5858 11.001L6.92893 16.6578C6.53841 17.0484 6.53841 17.6815 6.92893 18.072C7.31946 18.4626 7.95262 18.4626 8.34315 18.072L14.7071 11.7081ZM1 11.001L1 12.001L14 12.001L14 11.001L14 10.001L1 10.001L1 11.001Z" fill="#FEFEFE"/>
</svg>
