<svg width="24" height="24" viewBox="0 0 24 24" fill="none" xmlns="http://www.w3.org/2000/svg">
<path d="M12.4307 1.82715C14.5335 1.82716 16.2851 2.3935 17.4434 3.97559C18.54 5.47362 18.955 7.69731 18.9551 10.6221C18.9551 12.2411 19.3684 13.5396 19.9219 14.5342C20.2524 15.128 20.5399 15.6595 20.7178 16.1035C20.8726 16.49 21.0757 17.1072 20.8271 17.707C20.5435 18.3908 19.8839 18.6112 19.4463 18.7002C18.9746 18.7961 18.369 18.8184 17.6797 18.8184H16.1494C16.0327 19.499 15.7788 20.2753 15.3018 20.9727C14.5586 22.0588 13.3122 22.9004 11.4521 22.9004C9.59216 22.9003 8.34562 22.0589 7.60254 20.9727C7.12553 20.2753 6.8716 19.499 6.75488 18.8184H5.26367C4.57438 18.8184 3.96881 18.7961 3.49707 18.7002C3.05943 18.6112 2.39984 18.3908 2.11621 17.707C1.86763 17.1072 2.0708 16.49 2.22559 16.1035C2.40346 15.6595 2.69096 15.128 3.02148 14.5342C3.57496 13.5396 3.98824 12.2411 3.98828 10.6221C3.98831 7.69729 4.40335 5.47362 5.5 3.97559C6.65831 2.39351 8.4098 1.82715 10.5127 1.82715H12.4307ZM8.79785 18.8184C8.88933 19.1634 9.03469 19.5247 9.25293 19.8438C9.64393 20.4153 10.2883 20.9003 11.4521 20.9004C12.616 20.9004 13.2603 20.4152 13.6514 19.8438C13.8697 19.5246 14.0159 19.1635 14.1074 18.8184H8.79785ZM10.5127 3.82715C8.7661 3.82715 7.75494 4.28083 7.11328 5.15723C6.4104 6.11768 5.98832 7.7914 5.98828 10.6221C5.98824 12.5953 5.48085 14.227 4.76855 15.5068C4.45465 16.0708 4.24201 16.4739 4.11426 16.7734C4.37302 16.8029 4.74225 16.8184 5.26367 16.8184H17.6797C18.2011 16.8184 18.5703 16.8029 18.8291 16.7734C18.7013 16.4739 18.4887 16.0708 18.1748 15.5068C17.4625 14.227 16.9551 12.5953 16.9551 10.6221C16.955 7.79143 16.533 6.11769 15.8301 5.15723C15.1884 4.28083 14.1772 3.82716 12.4307 3.82715H10.5127Z" fill="#0D0D0D"/>
<rect x="13" y="1" width="7" height="7" rx="3.5" fill="#4190FF" stroke="#FEFEFE" stroke-opacity="0.6" stroke-width="2"/>
</svg>
