<svg width="47" height="52" viewBox="0 0 47 52" fill="none" xmlns="http://www.w3.org/2000/svg">
<path d="M1.2244 51.8398C-3.59607 32.2673 6.09604 11.4236 25.3834 2.58535C30.4721 0.0979617 37.0577 0.28849 40.8299 3.03228C44.795 5.52938 47.4036 10.8086 46.9486 15.4149C46.7798 20.0399 43.4837 24.9338 39.2174 26.8937C34.1973 29.5099 27.5994 29.5035 23.7417 26.8785C24.8381 29.0909 25.1537 32.0924 24.3712 34.7857C23.5888 37.4791 21.7083 39.8644 19.5886 41.1746C17.5208 42.5627 14.5451 43.3066 11.7196 42.9381C8.89406 42.5696 6.2188 41.0887 4.59103 39.2187C3.02289 42.588 1.53985 48.1478 1.2244 51.8398Z" fill="#91BFFF"/>
</svg>
