<svg width="24" height="25" viewBox="0 0 24 25" fill="none" xmlns="http://www.w3.org/2000/svg">
<mask id="path-1-inside-1_1977_12704" fill="white">
<path d="M16.5 1.3457C18.1566 1.34585 19.4997 2.68819 19.5 4.34473V22.4378C19.5 22.9392 19.0935 23.3457 18.5921 23.3457C18.3121 23.3457 18.0478 23.2166 17.8758 22.9957L13.1834 16.9714C12.5828 16.2004 11.4172 16.2004 10.8166 16.9714L6.12418 22.9957C5.95216 23.2166 5.68786 23.3457 5.40792 23.3457C4.90649 23.3457 4.5 22.9392 4.5 22.4378V4.3457C4.5 2.68885 5.84315 1.3457 7.5 1.3457H16.5Z"/>
</mask>
<path d="M16.5 1.3457L16.5002 -0.654297H16.5V1.3457ZM19.5 4.34473H21.5V4.34441L19.5 4.34473ZM7.5 1.3457V-0.654297V1.3457ZM6.12418 22.9957L7.70202 24.2247L6.12418 22.9957ZM13.1834 16.9714L11.6055 18.2004L13.1834 16.9714ZM17.8758 22.9957L16.298 24.2247L17.8758 22.9957ZM16.5 1.3457L16.4998 3.3457C17.0527 3.34575 17.4999 3.79353 17.5 4.34505L19.5 4.34473L21.5 4.34441C21.4996 1.58284 19.2605 -0.654054 16.5002 -0.654297L16.5 1.3457ZM19.5 4.34473H17.5V22.4378H19.5H21.5V4.34473H19.5ZM17.8758 22.9957L19.4536 21.7667L14.7612 15.7424L13.1834 16.9714L11.6055 18.2004L16.298 24.2247L17.8758 22.9957ZM10.8166 16.9714L9.23879 15.7424L4.54635 21.7667L6.12418 22.9957L7.70202 24.2247L12.3945 18.2004L10.8166 16.9714ZM4.5 22.4378H6.5V4.3457H4.5H2.5V22.4378H4.5ZM4.5 4.3457H6.5C6.5 3.79342 6.94772 3.3457 7.5 3.3457V1.3457V-0.654297C4.73858 -0.654297 2.5 1.58428 2.5 4.3457H4.5ZM7.5 1.3457V3.3457H16.5V1.3457V-0.654297H7.5V1.3457ZM5.40792 23.3457V21.3457C6.01106 21.3457 6.5 21.8346 6.5 22.4378H4.5H2.5C2.5 24.0438 3.80192 25.3457 5.40792 25.3457V23.3457ZM6.12418 22.9957L4.54635 21.7667C4.75328 21.501 5.07118 21.3457 5.40792 21.3457V23.3457V25.3457C6.30454 25.3457 7.15104 24.9321 7.70202 24.2247L6.12418 22.9957ZM13.1834 16.9714L14.7612 15.7424C13.3599 13.9434 10.6401 13.9434 9.23879 15.7424L10.8166 16.9714L12.3945 18.2004C12.1943 18.4574 11.8057 18.4574 11.6055 18.2004L13.1834 16.9714ZM18.5921 23.3457V21.3457C18.9288 21.3457 19.2467 21.501 19.4536 21.7667L17.8758 22.9957L16.298 24.2247C16.849 24.9321 17.6955 25.3457 18.5921 25.3457V23.3457ZM19.5 22.4378H17.5C17.5 21.8346 17.9889 21.3457 18.5921 21.3457V23.3457V25.3457C20.1981 25.3457 21.5 24.0438 21.5 22.4378H19.5Z" fill="#0D0D0D" mask="url(#path-1-inside-1_1977_12704)"/>
</svg>
