<svg width="18" height="18" viewBox="0 0 18 18" fill="none" xmlns="http://www.w3.org/2000/svg">
<path d="M17.2218 1.74572C17.2218 1.33153 16.886 0.995762 16.4718 0.995762L9.72139 0.995763C9.30716 0.995763 8.97135 1.33153 8.97135 1.74572C8.97135 2.15991 9.30716 2.49568 9.72139 2.49568L15.7217 2.49568L15.7217 8.49534C15.7217 8.90953 16.0575 9.2453 16.4718 9.2453C16.886 9.2453 17.2218 8.90953 17.2218 8.49534L17.2218 1.74572ZM10.252 7.96484L10.7823 8.49514L17.0021 2.27602L16.4718 1.74572L15.9414 1.21542L9.72159 7.43454L10.252 7.96484Z" fill="#FEFEFE"/>
<path d="M1.72155 15.7465C1.72155 16.1607 2.05735 16.4964 2.47159 16.4964L9.22197 16.4964C9.6362 16.4964 9.97201 16.1607 9.97201 15.7465C9.97201 15.3323 9.6362 14.9965 9.22197 14.9965H3.22163V8.99684C3.22163 8.58265 2.88583 8.24688 2.47159 8.24688C2.05735 8.24688 1.72155 8.58265 1.72155 8.99684L1.72155 15.7465ZM8.69141 9.52734L8.16105 8.99704L1.94123 15.2162L2.47159 15.7465L3.00195 16.2768L9.22177 10.0576L8.69141 9.52734Z" fill="#FEFEFE"/>
</svg>
