<svg width="25" height="25" viewBox="0 0 25 25" fill="none" xmlns="http://www.w3.org/2000/svg">
<path d="M20.7109 3H4.71094C3.60637 3 2.71094 3.89543 2.71094 5V15.79C2.71094 16.8946 3.60637 17.79 4.71094 17.79H8.86311C9.23748 17.79 9.58049 17.9991 9.752 18.3319L11.8135 22.3317C12.1802 23.0432 13.1924 23.057 13.5784 22.3558L15.8068 18.3078C15.9826 17.9884 16.3183 17.79 16.6828 17.79H20.7109C21.8155 17.79 22.7109 16.8946 22.7109 15.79V5C22.7109 3.89543 21.8155 3 20.7109 3Z" stroke="#979797" stroke-width="2" stroke-linecap="round"/>
<circle cx="7.78906" cy="10.7686" r="0.960938" fill="#979797"/>
<circle cx="12.7109" cy="10.7686" r="0.960938" fill="#979797"/>
<circle cx="17.6328" cy="10.7686" r="0.960938" fill="#979797"/>
</svg>
