<svg width="18" height="18" viewBox="0 0 18 18" fill="none" xmlns="http://www.w3.org/2000/svg">
<path d="M5.53749 5.07048L8.52624 2.36742C8.60241 2.29853 8.71838 2.29853 8.79455 2.36742L11.7834 5.07048C11.9191 5.19327 11.8323 5.41882 11.6492 5.41882H5.67165C5.48859 5.41882 5.40172 5.19327 5.53749 5.07048Z" stroke="#FEFEFE" stroke-width="1.5" stroke-linecap="round"/>
<path d="M10.9871 5.47363L13.6273 8.36096C13.7089 8.45014 13.6947 8.58907 13.5865 8.64289C11.8423 9.51046 5.33562 9.6858 3.71654 8.65558C3.62261 8.59581 3.61754 8.46809 3.69312 8.38636L6.38649 5.47363" stroke="#FEFEFE" stroke-width="1.5" stroke-linecap="round"/>
<path d="M13.0477 8.88086L15.4839 11.6955C15.5614 11.7852 15.5454 11.9219 15.4461 11.9867C11.7838 14.3798 4.80359 14.0722 1.80575 11.9914C1.7088 11.9241 1.69817 11.788 1.77821 11.7013L4.23141 9.04317" stroke="#FEFEFE" stroke-width="1.5" stroke-linecap="round"/>
<path d="M8.65039 16.2457V13.6895" stroke="#FEFEFE" stroke-width="1.5" stroke-linecap="round"/>
<path d="M13.6936 16.2461L3.60742 16.2461" stroke="#FEFEFE" stroke-width="1.5" stroke-linecap="round"/>
</svg>
