<svg width="18" height="18" viewBox="0 0 18 18" fill="none" xmlns="http://www.w3.org/2000/svg">
<path d="M6.94727 3.69727C7.36728 2.8116 8.5851 2.76727 9.09082 3.55078L9.18262 3.71875L11.3604 8.53906L11.7363 9.37109L12.4795 8.84082C12.6247 8.73726 12.7932 8.66505 12.9727 8.63184C13.1521 8.59868 13.3373 8.60533 13.5137 8.65039C13.6899 8.69546 13.8522 8.77808 13.9893 8.89062C14.0921 8.97511 14.1786 9.07521 14.2461 9.18555L14.3076 9.29883L14.3115 9.30664L16.4414 13.7402C16.8257 14.5409 16.2522 15.4961 15.3311 15.4961H3.29297C2.43291 15.496 1.87478 14.6613 2.12109 13.8975L2.18066 13.7461L6.94727 3.69824V3.69727Z" stroke="#FEFEFE" stroke-width="1.5"/>
</svg>
