<svg width="173" height="85" viewBox="0 0 173 85" fill="none" xmlns="http://www.w3.org/2000/svg">
<path d="M51.084 50.4674L55.0703 51.1356L45.1033 47.7945C43.1102 47.1263 37.1307 46.4581 34.4732 45.7899C31.8156 45.1216 27.8293 42.4487 26.5006 42.4487C25.1718 42.4487 22.5155 41.7805 20.5211 41.1123C18.5268 40.4441 16.5348 39.1076 15.8704 38.4394C15.206 37.7712 12.5485 36.4347 9.89097 34.43C7.23344 32.4254 3.24825 24.4067 1.91949 19.0609C0.590719 13.7151 -0.0736646 10.374 0.590719 9.70573C1.2551 9.0375 1.91949 11.7104 5.2414 15.0515C8.56332 18.3926 22.5155 25.7431 34.4743 33.7618C44.0413 40.1768 61.4925 45.7899 69.0222 47.7945C71.4583 47.5718 76.862 47.1263 78.988 47.1263C81.114 47.1263 84.746 48.0173 86.2962 48.4627C92.94 45.3444 106.759 38.8403 108.885 37.7712C111.011 36.702 115.086 35.5437 116.858 35.0983C118.408 34.2073 122.04 32.1581 124.166 31.0889C126.824 29.7525 139.447 24.4067 142.104 22.402C144.762 20.3973 150.077 15.0515 154.063 10.374C158.05 5.69638 158.714 0.350586 159.378 0.350586C160.043 0.350586 160.043 2.35526 160.043 3.02348C160.043 3.69171 159.378 7.70106 158.05 9.70573C156.721 11.7104 152.07 16.388 152.735 16.388C153.399 16.388 158.05 12.3786 159.378 11.0422C160.707 9.70573 166.022 3.69171 166.687 3.69171C167.351 3.69171 167.351 4.35993 167.351 5.02816C167.351 5.69638 164.029 9.70573 162.7 11.0422C161.372 12.3786 157.385 15.7197 158.05 15.7197C158.714 15.7197 162.036 13.7151 163.365 13.0469C164.693 12.3786 171.337 7.03283 172.002 7.03283C172.666 7.03283 171.337 9.0375 170.673 9.70573C170.009 10.374 170.009 10.374 170.009 11.0422C170.009 11.7104 168.015 13.7151 167.351 14.3833C166.687 15.0515 167.351 16.388 167.351 17.0562C167.351 17.5908 165.579 19.0609 164.693 19.7291H166.022C166.687 19.7291 166.022 20.3973 165.358 21.7338C164.826 22.8029 162.922 24.4067 162.036 25.0749H163.365C163.586 25.2976 163.896 25.8768 163.365 26.4113C162.7 27.0796 156.056 34.43 154.063 35.7665C152.07 37.1029 150.077 37.7712 150.077 38.4394C150.077 39.1076 149.413 41.1123 148.748 41.1123C148.084 41.1123 148.084 41.1123 148.084 41.7805C148.084 42.4487 146.755 43.117 146.091 43.117C145.426 43.117 146.091 44.4534 145.426 45.1216C144.762 45.7899 142.769 45.7899 142.104 45.7899C141.44 45.7899 140.776 47.1263 140.776 47.7945C140.776 48.4627 138.118 49.131 137.454 49.131C136.789 49.131 136.789 50.4674 136.789 51.1357C136.789 51.8039 135.461 52.4721 134.132 52.4721C132.803 52.4721 132.139 53.1403 132.139 53.8085C132.139 54.4768 130.81 55.145 130.146 55.145C129.481 55.145 128.152 55.8132 128.152 56.4814C128.152 57.1497 126.159 57.1497 126.159 57.8179C126.159 58.4861 124.83 58.4861 124.166 58.4861C123.502 58.4861 122.837 60.4908 121.509 60.4908C120.18 60.4908 119.515 61.159 117.522 63.1637C115.529 65.1684 122.837 71.1824 124.166 72.5188C125.229 73.588 133.025 79.2011 136.789 81.874C137.454 82.3195 138.65 83.3441 138.118 83.8786C137.454 84.5469 136.789 84.5469 134.796 84.5469C132.803 84.5469 120.844 79.8693 116.858 79.8693C112.872 79.8693 100.248 81.874 94.9332 81.2057C89.6181 80.5375 70.351 73.8553 67.0291 71.8506C64.3715 70.2469 58.835 65.8366 56.3989 63.8319C54.8487 62.9409 51.0839 61.0254 48.4263 60.4908C45.1044 59.8226 35.803 61.8272 34.4743 61.159L33.1455 60.4908H23.8442C23.6228 60.4908 23.047 60.3571 22.5155 59.8226C21.984 59.288 23.1799 58.2634 23.8442 57.8179L30.4881 52.4721C31.1525 51.3584 33.4114 48.9973 37.1319 48.4627C40.8525 47.9282 47.9835 49.5764 51.084 50.4674Z" fill="#979797"/>
</svg>
