<svg width="31" height="20" viewBox="0 0 31 20" fill="none" xmlns="http://www.w3.org/2000/svg">
<path d="M2.06786 1.08303C1.47125 1.19856 1.07351 1.51625 0.949219 1.66065L1.84413 2.31047C2.08278 2.48375 2.44074 2.76775 2.5899 2.88809C2.51532 3.00842 2.33634 3.33574 2.21702 3.68231C2.09769 4.02888 2.1673 4.54874 2.21702 4.76534V5.12635C2.09272 5.36703 1.8143 6.06498 1.69498 6.93141C1.57566 7.79783 1.7447 8.59206 1.84413 8.88087L1.99329 9.24188C1.89385 9.72323 2.09769 11.1336 3.70854 12.9242C5.31939 14.7148 8.05883 15.9807 9.22719 16.3899L7.73566 17.3285L7.13905 17.4729L6.54244 17.6895C6.29385 17.7377 5.78176 17.8339 5.7221 17.8339C5.64753 17.8339 5.27464 17.9061 5.20007 17.9061H4.90176L4.45431 17.9783H4.156L3.70854 18.1949C3.58922 18.2527 3.50967 18.4838 3.55939 18.6282L4.30515 18.4116L5.20007 18.3394L5.7221 18.2671L6.24414 18.4116H6.46787L6.84075 18.2671H7.58651C7.70583 18.2671 7.8351 18.219 7.88482 18.1949L8.40685 17.9783L8.92888 17.8339H9.45092C9.51058 17.8339 9.8238 17.8821 9.97295 17.9061L10.495 17.6895H10.9424L10.7187 17.9783L10.0475 18.3394L7.36278 18.917C7.26335 18.941 7.03465 19.0036 6.91532 19.0614C6.76617 19.1336 6.54244 19.3502 6.46787 19.4224C6.39329 19.4946 6.31871 19.639 6.24414 19.7834C6.18448 19.8989 6.21928 19.9759 6.24414 20L6.39329 19.7112C6.46787 19.5668 6.69159 19.4224 6.84075 19.3502C6.96007 19.2924 8.60572 19.1336 8.70515 19.1336H8.85431V19.278V19.4946L8.92888 19.639L9.00346 19.7112L9.07804 19.4224H9.15261L10.9424 18.8448L11.1662 18.6282H11.3153H11.6882H12.0611H12.3594L12.5085 18.4838H12.6577H12.956L13.4035 18.4116L13.478 18.2671L13.5526 18.0505L13.6272 17.9061L13.9255 17.8339L14.2238 17.9061L14.5967 18.1949L14.6713 18.1227L14.5221 17.8339C14.4475 17.7617 14.2685 17.6029 14.1492 17.5451C14.0001 17.4729 13.7763 17.4729 13.6272 17.4729C13.5079 17.4729 13.13 17.6173 12.956 17.6895H12.2102L12.6577 17.2563C12.8566 17.2804 13.314 17.3285 13.5526 17.3285C13.7913 17.3285 14.3481 17.2804 14.5967 17.2563L14.895 17.1841C15.0441 17.16 15.3574 17.0975 15.417 17.0397C15.4767 16.9819 15.6905 16.7268 15.7899 16.6065C15.9639 16.5584 16.3567 16.4477 16.5357 16.3899C16.7147 16.3321 16.9583 16.1733 17.0577 16.1011H17.4306C17.5797 16.1011 17.8035 16.0289 17.9526 15.9567C18.0719 15.8989 18.1018 15.7882 18.1018 15.7401L18.6984 15.5235L22.3526 15.5957H23.9187C24.1922 15.5716 24.754 15.5379 24.8136 15.5957C24.8882 15.6679 26.7526 16.1011 27.2001 16.2455C27.6475 16.3899 30.556 17.4729 30.6306 17.4729C30.7052 17.4729 30.8543 17.4729 30.9289 17.3285C31.0035 17.1841 30.8543 17.0397 30.7797 16.9675C30.7052 16.8953 30.2578 16.6787 30.1086 16.6065L30.1086 16.6065C29.9892 16.5487 29.1142 16.1492 28.6916 15.9567L26.9018 15.3069L25.2611 14.7292L23.9933 14.296L22.4272 13.7906L21.6814 13.574C21.5323 13.4537 21.2041 13.1841 21.0848 13.0686L20.6374 12.6354H21.3831C21.4428 12.6354 21.6566 12.6835 21.756 12.7076C22.1537 12.8039 22.9791 12.9964 23.0984 12.9964C23.2475 12.9964 23.3221 12.9242 23.3221 12.852C23.3221 12.7798 22.9492 12.5632 22.7255 12.4188C22.5465 12.3032 22.3029 12.1781 22.2035 12.13L23.2475 12.3466C23.2724 12.3466 23.337 12.3321 23.3967 12.2744C23.4713 12.2022 23.2475 12.13 23.3221 12.13C23.3818 12.13 23.4464 12.0818 23.4713 12.0578C23.4713 12.0337 23.4563 11.9711 23.3967 11.9134C23.3221 11.8412 22.0543 11.3357 21.9052 11.2635C21.7858 11.2058 20.8114 10.9025 20.3391 10.7581C19.7424 10.2527 18.5045 9.19856 18.3255 9.02527C18.1465 8.85199 16.8091 8.03851 16.1628 7.65343C15.9639 7.43682 15.4916 6.91697 15.1933 6.5704C14.8204 6.13718 14.2238 5.63177 13.7763 5.27076C13.4184 4.98195 12.8814 4.5728 12.6577 4.40433L11.2407 3.4657C10.7933 2.38267 9.8238 1.80505 9.00346 1.29964C8.18312 0.794224 7.58651 0.505415 7.06448 0.288809C6.54244 0.0722022 5.79668 0 5.05092 0C4.30515 0 3.93227 0.288809 3.63397 0.433213C3.39532 0.548737 3.18651 0.818291 3.11193 0.938628C3.0125 0.938628 2.66447 0.967509 2.06786 1.08303Z" fill="#979797"/>
</svg>
